<svg xmlns="http://www.w3.org/2000/svg" width="1200" height="630" viewBox="0 0 1200 630"><rect width="1200" height="630" fill="#fbf9f4"/><g stroke="#e5e1d8" stroke-width="1" opacity=".8"><path d="M0 48H1200M0 96H1200M0 144H1200M0 192H1200M0 240H1200M0 288H1200M0 336H1200M0 384H1200M0 432H1200M0 480H1200M0 528H1200M0 576H1200"/><path d="M48 0V630M96 0V630M144 0V630M192 0V630M240 0V630M288 0V630M336 0V630M384 0V630M432 0V630M480 0V630M528 0V630M576 0V630M624 0V630M672 0V630M720 0V630M768 0V630M816 0V630M864 0V630M912 0V630M960 0V630M1008 0V630M1056 0V630M1104 0V630M1152 0V630"/></g><rect width="1200" height="10" fill="#11110e"/><rect y="620" width="1200" height="10" fill="#3157ff"/><text x="78" y="95" font-family="Arial,Helvetica,sans-serif" font-size="24" fill="#706d66">IDEAL + WHY / ONE MORE QUESTION</text><text x="72" y="300" font-family="Arial,Helvetica,sans-serif" font-size="160" font-weight="700" fill="#11110e">ideal</text><text x="72" y="450" font-family="Arial,Helvetica,sans-serif" font-size="160" font-weight="700" fill="#3157ff">why?</text><line x1="615" y1="175" x2="615" y2="469" stroke="#11110e" stroke-width="2"/><rect x="610" y="290" width="10" height="30" fill="#3157ff"/><text x="665" y="252" font-family="Arial,Helvetica,sans-serif" font-size="34" fill="#11110e">ideal에서 멈추지 않고,</text><text x="665" y="300" font-family="Arial,Helvetica,sans-serif" font-size="34" fill="#11110e">why?라는 질문으로</text><text x="665" y="348" font-family="Arial,Helvetica,sans-serif" font-size="34" fill="#11110e">한 발 더 나아갑니다.</text><text x="665" y="452" font-family="Arial,Helvetica,sans-serif" font-size="23" fill="#3157ff">www.idealwhy.com</text></svg>